<?xml version="1.0" standalone="no"?>
<!DOCTYPE svg PUBLIC "-//W3C//DTD SVG 20010904//EN"
 "http://www.w3.org/TR/2001/REC-SVG-20010904/DTD/svg10.dtd">
<svg version="1.0" xmlns="http://www.w3.org/2000/svg"
 width="641.000000pt" height="136.000000pt" viewBox="0 0 641.000000 136.000000"
 preserveAspectRatio="xMidYMid meet">
<metadata>
Created by potrace 1.16, written by Peter Selinger 2001-2019
</metadata>
<g transform="translate(0.000000,136.000000) scale(0.100000,-0.100000)"
fill="#000000" stroke="none">
<path d="M1147 1349 c-98 -3 -181 -10 -185 -14 -4 -4 14 -6 41 -4 49 4 60 -11
16 -21 -22 -6 -21 -7 11 -13 l35 -7 3 -121 c3 -71 0 -124 -6 -128 -5 -3 -12
-28 -14 -55 -4 -30 -2 -43 3 -35 6 10 9 1 10 -26 l2 -40 7 40 c7 39 7 39 9 8
1 -37 -15 -33 149 -36 l73 -2 0 -115 1 -115 -136 -2 c-127 -3 -135 -2 -141 17
-8 26 -21 25 -36 -1 -10 -20 -17 -21 -78 -17 -53 4 -68 2 -68 -8 0 -17 14 -18
19 -2 3 7 7 5 11 -6 6 -16 1 -17 -53 -14 -33 1 -60 0 -60 -4 0 -5 27 -8 59 -8
33 0 66 -3 75 -6 11 -4 16 -1 16 11 0 9 -4 13 -10 10 -5 -3 -10 -2 -10 3 0 5
11 10 25 10 14 0 25 -5 25 -10 0 -5 -4 -6 -10 -3 -5 3 -10 1 -10 -4 0 -6 10
-10 23 -10 12 1 87 0 167 -1 80 0 169 -1 198 -1 l52 1 0 368 c0 344 -1 368
-17 367 -10 0 -98 -3 -196 -6z"/>
<path d="M3287 1159 c-157 -37 -282 -172 -310 -335 -20 -117 24 -256 111 -347
111 -117 313 -151 462 -79 59 29 130 82 130 98 0 3 12 23 28 43 40 54 49 72
67 146 19 74 16 113 -16 208 -21 62 -88 159 -137 197 -81 64 -228 94 -335 69z"/>
<path d="M1472 673 l3 -438 2 432 3 433 673 3 672 2 -677 3 -678 2 2 -437z"/>
<path d="M5556 970 c-88 -34 -136 -96 -136 -175 0 -80 30 -117 142 -179 49
-27 70 -44 74 -62 15 -61 -81 -91 -189 -60 -30 9 -59 16 -65 16 -5 0 -12 -19
-16 -42 -4 -24 -9 -53 -12 -65 -5 -19 0 -23 38 -34 23 -7 86 -13 138 -13 139
0 220 40 261 129 49 106 10 180 -132 256 -33 18 -65 41 -70 51 -13 25 5 56 37
64 22 6 115 1 168 -8 16 -2 21 5 28 37 4 22 10 49 13 61 4 17 -2 23 -34 32
-60 19 -188 14 -245 -8z"/>
<path d="M4380 972 c0 -5 24 -14 53 -21 74 -17 120 -42 135 -73 10 -22 62
-214 126 -468 l11 -45 86 -3 87 -3 25 63 c14 35 71 171 126 302 56 132 101
243 101 248 0 4 -38 8 -85 8 -59 0 -85 -4 -85 -12 0 -7 -35 -99 -77 -206 -56
-139 -80 -188 -85 -175 -4 10 -21 94 -39 187 -23 120 -37 174 -50 187 -17 17
-36 19 -174 19 -85 0 -155 -4 -155 -8z"/>
<path d="M5206 963 c-3 -10 -28 -126 -56 -258 -28 -132 -55 -259 -60 -282 -15
-64 -17 -63 69 -63 l78 0 17 83 c21 96 104 482 111 515 5 21 3 22 -74 22 -67
0 -80 -3 -85 -17z"/>
<path d="M6069 967 c-9 -7 -46 -82 -82 -167 -132 -314 -177 -423 -177 -432 0
-5 37 -8 82 -6 l81 3 15 43 14 42 108 0 108 0 6 -45 7 -45 75 0 c41 0 74 1 74
3 0 1 -23 111 -50 242 -28 132 -55 263 -61 290 -17 90 -11 85 -102 85 -49 -1
-89 -6 -98 -13z m90 -257 c30 -137 33 -130 -44 -130 l-64 0 25 68 c15 37 33
88 42 115 8 26 16 46 18 44 2 -1 12 -45 23 -97z"/>
<path d="M1122 852 c-22 -3 -23 -7 -19 -73 3 -38 1 -69 -3 -69 -4 0 -19 27
-33 60 -15 33 -31 60 -37 60 -13 0 -13 -16 0 -41 9 -16 7 -21 -12 -28 -27 -10
-55 6 -38 23 5 5 10 21 10 34 0 16 4 22 13 19 8 -3 20 -1 28 4 10 6 4 9 -18 9
-32 0 -38 -7 -34 -39 2 -8 -2 -10 -10 -5 -8 4 -10 3 -5 -4 4 -7 3 -12 -3 -12
-5 0 -12 -13 -16 -29 -5 -25 -12 -30 -44 -33 l-38 -3 3 40 c3 33 2 36 -5 15
-8 -23 -9 -24 -10 -3 -1 12 4 25 9 28 6 4 8 11 5 16 -4 5 1 9 10 9 9 0 13 5
10 11 -5 7 -14 4 -26 -7 -20 -18 -25 -58 -10 -96 8 -20 15 -23 57 -23 44 1 49
4 46 23 -2 15 2 22 12 22 9 0 16 -4 16 -10 0 -17 58 -11 70 8 11 16 11 16 6
-1 -10 -30 11 -57 44 -57 30 0 30 1 30 54 0 30 4 57 9 60 5 3 24 -20 43 -52
22 -38 41 -58 56 -60 21 -3 22 0 22 72 0 60 -3 76 -15 76 -10 0 -15 -15 -17
-57 l-3 -58 -17 35 c-27 55 -60 87 -86 82z"/>
<path d="M1537 843 c-4 -3 -7 -48 -7 -100 l0 -93 51 0 c43 0 55 5 80 29 61 62
21 156 -72 166 -25 3 -48 2 -52 -2z"/>
<path d="M2133 840 c-49 -20 -71 -96 -39 -141 12 -18 16 -20 16 -7 0 12 5 15
15 11 9 -3 15 -2 14 3 -1 5 -1 16 0 24 1 13 2 13 11 0 5 -8 10 -10 10 -4 0 5
14 21 31 33 25 19 33 21 40 10 7 -11 9 -10 9 3 0 12 5 15 17 11 14 -6 14 -3
-2 25 -24 40 -70 53 -122 32z"/>
<path d="M2617 844 c-3 -5 -5 -51 -4 -101 0 -83 2 -93 19 -93 14 0 18 8 18 35
0 44 9 44 38 0 13 -21 30 -35 42 -35 26 0 25 5 -5 44 -25 33 -25 33 -5 51 23
21 26 53 8 78 -14 18 -102 35 -111 21z"/>
<path d="M2810 445 l0 -185 -502 0 c-308 0 -509 -4 -518 -10 -10 -6 166 -10
508 -10 l522 0 0 195 c0 107 -2 195 -5 195 -3 0 -5 -83 -5 -185z"/>
<path d="M766 564 c-3 -9 -6 -42 -6 -75 0 -55 2 -59 23 -59 13 0 17 3 11 8 -7
4 -12 27 -12 52 0 36 2 41 9 23 6 -16 17 -23 37 -23 32 0 52 -16 52 -42 0 -10
7 -18 15 -18 18 0 20 41 3 58 -9 9 -9 15 0 24 18 18 14 46 -7 58 -32 17 -118
13 -125 -6z"/>
<path d="M668 414 c-3 -26 -5 -27 -72 -26 -42 0 -71 5 -76 12 -6 9 -13 9 -28
1 -11 -6 -61 -11 -109 -11 -49 0 -93 -4 -98 -9 -6 -5 -19 -12 -30 -15 -11 -3
-4 -3 15 1 19 3 73 6 120 7 55 1 90 6 99 14 12 11 15 11 22 0 12 -19 11 -48
-2 -48 -6 0 -9 7 -6 15 4 8 2 17 -2 20 -7 4 -17 -11 -24 -35 0 -3 12 -7 29
-11 l29 -5 -32 -5 c-18 -3 -31 -3 -28 -1 6 6 -34 42 -47 42 -4 0 -8 -4 -8 -10
0 -5 6 -10 13 -10 9 0 8 -3 -2 -9 -11 -7 -11 -9 0 -14 8 -3 -14 -6 -48 -6 -40
-1 -63 -5 -63 -12 0 -16 -137 -5 -184 15 -20 8 -35 12 -32 8 2 -4 -7 -12 -20
-19 -22 -10 -24 -9 -24 15 l-1 27 -14 -30 c-13 -29 -13 -28 -16 40 l-2 70 -7
-55 c-5 -30 -8 -126 -9 -212 l-1 -158 675 0 675 0 0 198 0 197 -247 -3 c-142
-1 -252 -7 -257 -12 -6 -6 -17 -10 -25 -9 -11 0 -10 3 4 9 14 6 -1 9 -47 9
-66 1 -68 2 -68 26 0 20 -5 25 -24 25 -19 0 -25 -6 -28 -26z"/>
</g>
</svg>
